solid AssimpScene
 facet normal 0 0 1
  outer loop
  vertex 1 -1 0
  vertex 0.744526 -0.744526 0
  vertex 0.483474 -1 0
  endloop
 endfacet

 facet normal 0 0 1
  outer loop
  vertex 1 -0.580863 0
  vertex 0.744526 -0.744526 0
  vertex 1 -1 0
  endloop
 endfacet

 facet normal 0 0 1
  outer loop
  vertex 0.483474 -1 0
  vertex 0.431684 -0.431684 0
  vertex 0.226152 -1 0
  endloop
 endfacet

 facet normal 0 0 1
  outer loop
  vertex 0.0538298 -0.409029 0
  vertex 0.226152 -1 0
  vertex 0.250806 -0.385509 0
  endloop
 endfacet

 facet normal 0 0 1
  outer loop
  vertex 0.0538298 -0.409029 0
  vertex -0.0361975 -1 0
  vertex -0.0149648 -1 0
  endloop
 endfacet

 facet normal 0 0 1
  outer loop
  vertex -0.707056 -0.499881 0
  vertex -1 -0.598337 0
  vertex -0.498843 -1 0
  endloop
 endfacet

 facet normal 0 0 1
  outer loop
  vertex -0.498843 -1 0
  vertex -1 -0.598337 0
  vertex -1 -1 0
  endloop
 endfacet

 facet normal 0 0 1
  outer loop
  vertex -1 -0.534859 0
  vertex -0.886595 -0.366036 0
  vertex -1 -0.384156 0
  endloop
 endfacet

 facet normal 0 0 1
  outer loop
  vertex -1 -0.384156 0
  vertex -0.939959 -0.326254 0
  vertex -1 -0.376447 0
  endloop
 endfacet

 facet normal 0 0 1
  outer loop
  vertex -1 -0.376447 0
  vertex -0.939959 -0.326254 0
  vertex -1 -0.281494 0
  endloop
 endfacet

 facet normal 0 0 1
  outer loop
  vertex -0.939959 -0.326254 0
  vertex -1 -0.246441 0
  vertex -1 -0.281494 0
  endloop
 endfacet

 facet normal 0 0 1
  outer loop
  vertex -0.811579 -0.218928 0
  vertex -0.943422 -0.0741109 0
  vertex -1 -0.138496 0
  endloop
 endfacet

 facet normal 0 0 1
  outer loop
  vertex -1 -0.138496 0
  vertex -0.943422 -0.0741109 0
  vertex -1 -0.0593581 0
  endloop
 endfacet

 facet normal 0 0 1
  outer loop
  vertex -0.943422 -0.0741109 0
  vertex -1 0.0982777 0
  vertex -1 -0.0593581 0
  endloop
 endfacet

 facet normal 0 0 1
  outer loop
  vertex -0.467494 0.467494 0
  vertex -0.586239 0.586239 0
  vertex -1 0.365844 0
  endloop
 endfacet

 facet normal 0 0 1
  outer loop
  vertex -0.586239 0.586239 0
  vertex -1 0.517451 0
  vertex -1 0.365844 0
  endloop
 endfacet

 facet normal 0 0 1
  outer loop
  vertex -1 0.517451 0
  vertex -0.88047 0.88047 0
  vertex -1 1 0
  endloop
 endfacet

 facet normal 0 0 1
  outer loop
  vertex -0.467494 0.467494 0
  vertex -0.595808 -0.0385451 0
  vertex -0.250299 0.250299 0
  endloop
 endfacet

 facet normal 0 0 1
  outer loop
  vertex -0.250299 0.250299 0
  vertex -0.288545 -0.142556 0
  vertex 0.0876284 -0.0876284 0
  endloop
 endfacet

 facet normal 0 0 1
  outer loop
  vertex -0.0318185 -0.229461 0
  vertex 0.0767526 -0.212113 0
  vertex 0.0876284 -0.0876284 0
  endloop
 endfacet

 facet normal 0 0 1
  outer loop
  vertex 0.0908668 -0.0908668 0
  vertex 0.0767526 -0.212113 0
  vertex 0.193465 -0.193465 0
  endloop
 endfacet

 facet normal 0 0 1
  outer loop
  vertex 0.193465 -0.193465 0
  vertex 0.0706936 -0.264162 0
  vertex 0.363167 -0.363167 0
  endloop
 endfacet

 facet normal 0 0 1
  outer loop
  vertex 0.0706936 -0.264162 0
  vertex 0.0622899 -0.336353 0
  vertex 0.250806 -0.385509 0
  endloop
 endfacet

 facet normal 0 0 1
  outer loop
  vertex 0.371141 -0.371141 0
  vertex 0.250806 -0.385509 0
  vertex 0.431684 -0.431684 0
  endloop
 endfacet

 facet normal 0 0 1
  outer loop
  vertex 0.0622899 -0.336353 0
  vertex -0.0318185 -0.229461 0
  vertex -0.22765 -0.26075 0
  endloop
 endfacet

 facet normal 0 0 1
  outer loop
  vertex -0.22765 -0.26075 0
  vertex -0.288545 -0.142556 0
  vertex -0.540076 -0.179284 0
  endloop
 endfacet

 facet normal 0 0 1
  outer loop
  vertex -0.540076 -0.179284 0
  vertex -0.595808 -0.0385451 0
  vertex -0.710882 -0.134746 0
  endloop
 endfacet

 facet normal 0 0 1
  outer loop
  vertex -0.540076 -0.179284 0
  vertex -0.710882 -0.134746 0
  vertex -0.811579 -0.218928 0
  endloop
 endfacet

 facet normal 0 0 1
  outer loop
  vertex -0.811579 -0.218928 0
  vertex -0.939959 -0.326254 0
  vertex -0.886595 -0.366036 0
  endloop
 endfacet

 facet normal 0 0 1
  outer loop
  vertex 0.0538298 -0.409029 0
  vertex -0.22765 -0.26075 0
  vertex -0.707056 -0.499881 0
  endloop
 endfacet

 facet normal 0 0 1
  outer loop
  vertex 0.0622899 -0.336353 0
  vertex 0.0538298 -0.409029 0
  vertex 0.250806 -0.385509 0
  endloop
 endfacet

 facet normal 0 0 1
  outer loop
  vertex 0.0706936 -0.264162 0
  vertex 0.0767526 -0.212113 0
  vertex -0.0318185 -0.229461 0
  endloop
 endfacet

 facet normal 0 0 1
  outer loop
  vertex -0.839639 0.043994 0
  vertex -0.710882 -0.134746 0
  vertex -0.595808 -0.0385451 0
  endloop
 endfacet

 facet normal 0 0 1
  outer loop
  vertex 0.744526 -0.744526 0
  vertex 0.930326 -0.562696 0
  vertex 0.431684 -0.431684 0
  endloop
 endfacet

 facet normal 0 0 1
  outer loop
  vertex 0.446287 -0.391304 0
  vertex 0.371141 -0.371141 0
  vertex 0.431684 -0.431684 0
  endloop
 endfacet

 facet normal 0 0 1
  outer loop
  vertex 0.371141 -0.371141 0
  vertex 0.382659 -0.369765 0
  vertex 0.363167 -0.363167 0
  endloop
 endfacet

 facet normal 0 0 1
  outer loop
  vertex 0.537729 -0.138459 0
  vertex 0.363167 -0.363167 0
  vertex 0.4573 -0.360853 0
  endloop
 endfacet

 facet normal 0 0 1
  outer loop
  vertex 0.0913063 -0.0870915 0
  vertex 0.193465 -0.193465 0
  vertex 0.58223 -0.0154078 0
  endloop
 endfacet

 facet normal 0 0 1
  outer loop
  vertex 0.0908668 -0.0908668 0
  vertex 0.0913063 -0.0870915 0
  vertex 0.0876284 -0.0876284 0
  endloop
 endfacet

 facet normal 0 0 1
  outer loop
  vertex 0.0913063 -0.0870915 0
  vertex -0.250299 0.250299 0
  vertex 0.0876284 -0.0876284 0
  endloop
 endfacet

 facet normal 0 0 1
  outer loop
  vertex 0.171644 0.60304 0
  vertex 0.173098 0.615527 0
  vertex -0.149538 0.829327 0
  endloop
 endfacet

 facet normal 0 0 1
  outer loop
  vertex -0.467494 0.467494 0
  vertex -0.196982 0.860767 0
  vertex -0.586239 0.586239 0
  endloop
 endfacet

 facet normal 0 0 1
  outer loop
  vertex -0.407092 1 0
  vertex -0.841112 1 0
  vertex -0.88047 0.88047 0
  endloop
 endfacet

 facet normal 0 0 1
  outer loop
  vertex -0.88047 0.88047 0
  vertex -0.841112 1 0
  vertex -1 1 0
  endloop
 endfacet

 facet normal 0 0 1
  outer loop
  vertex -0.407092 1 0
  vertex -0.196982 0.860767 0
  vertex 0.000438467 1 0
  endloop
 endfacet

 facet normal 0 0 1
  outer loop
  vertex -0.149538 0.829327 0
  vertex 0.217854 1 0
  vertex 0.000438467 1 0
  endloop
 endfacet

 facet normal 0 0 1
  outer loop
  vertex 0.57278 0.938388 0
  vertex 0.217854 1 0
  vertex 0.180619 0.610543 0
  endloop
 endfacet

 facet normal 0 0 1
  outer loop
  vertex 0.534775 1 0
  vertex 0.57278 0.938388 0
  vertex 0.64648 1 0
  endloop
 endfacet

 facet normal 0 0 1
  outer loop
  vertex 0.57278 0.938388 0
  vertex 0.949453 1 0
  vertex 0.64648 1 0
  endloop
 endfacet

 facet normal 0 0 1
  outer loop
  vertex 0.796189 0.57621 0
  vertex 1 1 0
  vertex 0.949453 1 0
  endloop
 endfacet

 facet normal 0 0 1
  outer loop
  vertex 1 0.245803 0
  vertex 0.687201 0.274847 0
  vertex 1 0.0675644 0
  endloop
 endfacet

 facet normal 0 0 1
  outer loop
  vertex 0.687201 0.274847 0
  vertex 1 0.045594 0
  vertex 1 0.0675644 0
  endloop
 endfacet

 facet normal 0 0 1
  outer loop
  vertex 0.58223 -0.0154078 0
  vertex 1 -0.0645971 0
  vertex 1 0.045594 0
  endloop
 endfacet

 facet normal 0 0 1
  outer loop
  vertex 0.537729 -0.138459 0
  vertex 1 -0.296053 0
  vertex 1 -0.0645971 0
  endloop
 endfacet

 facet normal 0 0 1
  outer loop
  vertex 0.4573 -0.360853 0
  vertex 0.446287 -0.391304 0
  vertex 0.936051 -0.557094 0
  endloop
 endfacet

 facet normal 0 0 1
  outer loop
  vertex 1 -0.494511 0
  vertex 0.936051 -0.557094 0
  vertex 1 -0.578741 0
  endloop
 endfacet

 facet normal 0 0 1
  outer loop
  vertex 0.936051 -0.557094 0
  vertex 1 -0.580863 0
  vertex 1 -0.578741 0
  endloop
 endfacet

 facet normal 0 0 1
  outer loop
  vertex 0.446287 -0.391304 0
  vertex 0.930326 -0.562696 0
  vertex 0.936051 -0.557094 0
  endloop
 endfacet

 facet normal 0 0 1
  outer loop
  vertex 0.796189 0.57621 0
  vertex 0.180619 0.610543 0
  vertex 0.687201 0.274847 0
  endloop
 endfacet

 facet normal 0 0 1
  outer loop
  vertex 0.171644 0.60304 0
  vertex 0.0913063 -0.0870915 0
  vertex 0.58223 -0.0154078 0
  endloop
 endfacet

 facet normal 0 0 1
  outer loop
  vertex 0.180619 0.610543 0
  vertex 0.173098 0.615527 0
  vertex 0.171644 0.60304 0
  endloop
 endfacet

 facet normal 0 0 1
  outer loop
  vertex 0.000438467 1 0
  vertex -0.196982 0.860767 0
  vertex -0.149538 0.829327 0
  endloop
 endfacet

 facet normal 0 0 1
  outer loop
  vertex 0.4573 -0.360853 0
  vertex 0.382659 -0.369765 0
  vertex 0.446287 -0.391304 0
  endloop
 endfacet

 facet normal 0 0 1
  outer loop
  vertex 1 -0.580863 0
  vertex 0.930326 -0.562696 0
  vertex 0.744526 -0.744526 0
  endloop
 endfacet

 facet normal 0 0 1
  outer loop
  vertex 0.483474 -1 0
  vertex 0.744526 -0.744526 0
  vertex 0.431684 -0.431684 0
  endloop
 endfacet

 facet normal 0 0 1
  outer loop
  vertex -0.0149648 -1 0
  vertex 0.226152 -1 0
  vertex 0.0538298 -0.409029 0
  endloop
 endfacet

 facet normal 0 0 1
  outer loop
  vertex 0.226152 -1 0
  vertex 0.431684 -0.431684 0
  vertex 0.250806 -0.385509 0
  endloop
 endfacet

 facet normal 0 0 1
  outer loop
  vertex 0.0538298 -0.409029 0
  vertex -0.707056 -0.499881 0
  vertex -0.0361975 -1 0
  endloop
 endfacet

 facet normal 0 0 1
  outer loop
  vertex -0.498843 -1 0
  vertex -0.0361975 -1 0
  vertex -0.707056 -0.499881 0
  endloop
 endfacet

 facet normal 0 0 1
  outer loop
  vertex -0.707056 -0.499881 0
  vertex -1 -0.534859 0
  vertex -1 -0.598337 0
  endloop
 endfacet

 facet normal 0 0 1
  outer loop
  vertex -1 -0.534859 0
  vertex -0.707056 -0.499881 0
  vertex -0.886595 -0.366036 0
  endloop
 endfacet

 facet normal 0 0 1
  outer loop
  vertex -1 -0.384156 0
  vertex -0.886595 -0.366036 0
  vertex -0.939959 -0.326254 0
  endloop
 endfacet

 facet normal 0 0 1
  outer loop
  vertex -0.939959 -0.326254 0
  vertex -0.811579 -0.218928 0
  vertex -1 -0.246441 0
  endloop
 endfacet

 facet normal 0 0 1
  outer loop
  vertex -1 -0.138496 0
  vertex -1 -0.246441 0
  vertex -0.811579 -0.218928 0
  endloop
 endfacet

 facet normal 0 0 1
  outer loop
  vertex -0.811579 -0.218928 0
  vertex -0.710882 -0.134746 0
  vertex -0.943422 -0.0741109 0
  endloop
 endfacet

 facet normal 0 0 1
  outer loop
  vertex -0.943422 -0.0741109 0
  vertex -0.839639 0.043994 0
  vertex -1 0.0982777 0
  endloop
 endfacet

 facet normal 0 0 1
  outer loop
  vertex -1 0.365844 0
  vertex -1 0.0982777 0
  vertex -0.839639 0.043994 0
  endloop
 endfacet

 facet normal 0 0 1
  outer loop
  vertex -0.839639 0.043994 0
  vertex -0.467494 0.467494 0
  vertex -1 0.365844 0
  endloop
 endfacet

 facet normal 0 0 1
  outer loop
  vertex -0.586239 0.586239 0
  vertex -0.88047 0.88047 0
  vertex -1 0.517451 0
  endloop
 endfacet

 facet normal 0 0 1
  outer loop
  vertex -0.467494 0.467494 0
  vertex -0.839639 0.043994 0
  vertex -0.595808 -0.0385451 0
  endloop
 endfacet

 facet normal 0 0 1
  outer loop
  vertex -0.250299 0.250299 0
  vertex -0.595808 -0.0385451 0
  vertex -0.288545 -0.142556 0
  endloop
 endfacet

 facet normal 0 0 1
  outer loop
  vertex 0.0908668 -0.0908668 0
  vertex 0.0876284 -0.0876284 0
  vertex 0.0767526 -0.212113 0
  endloop
 endfacet

 facet normal 0 0 1
  outer loop
  vertex 0.0876284 -0.0876284 0
  vertex -0.288545 -0.142556 0
  vertex -0.0318185 -0.229461 0
  endloop
 endfacet

 facet normal 0 0 1
  outer loop
  vertex 0.193465 -0.193465 0
  vertex 0.0767526 -0.212113 0
  vertex 0.0706936 -0.264162 0
  endloop
 endfacet

 facet normal 0 0 1
  outer loop
  vertex 0.371141 -0.371141 0
  vertex 0.363167 -0.363167 0
  vertex 0.250806 -0.385509 0
  endloop
 endfacet

 facet normal 0 0 1
  outer loop
  vertex 0.363167 -0.363167 0
  vertex 0.0706936 -0.264162 0
  vertex 0.250806 -0.385509 0
  endloop
 endfacet

 facet normal 0 0 1
  outer loop
  vertex 0.0622899 -0.336353 0
  vertex 0.0706936 -0.264162 0
  vertex -0.0318185 -0.229461 0
  endloop
 endfacet

 facet normal 0 0 1
  outer loop
  vertex -0.22765 -0.26075 0
  vertex -0.0318185 -0.229461 0
  vertex -0.288545 -0.142556 0
  endloop
 endfacet

 facet normal 0 0 1
  outer loop
  vertex -0.540076 -0.179284 0
  vertex -0.288545 -0.142556 0
  vertex -0.595808 -0.0385451 0
  endloop
 endfacet

 facet normal 0 0 1
  outer loop
  vertex -0.22765 -0.26075 0
  vertex -0.540076 -0.179284 0
  vertex -0.886595 -0.366036 0
  endloop
 endfacet

 facet normal 0 0 1
  outer loop
  vertex -0.540076 -0.179284 0
  vertex -0.811579 -0.218928 0
  vertex -0.886595 -0.366036 0
  endloop
 endfacet

 facet normal 0 0 1
  outer loop
  vertex 0.0622899 -0.336353 0
  vertex -0.22765 -0.26075 0
  vertex 0.0538298 -0.409029 0
  endloop
 endfacet

 facet normal 0 0 1
  outer loop
  vertex -0.22765 -0.26075 0
  vertex -0.886595 -0.366036 0
  vertex -0.707056 -0.499881 0
  endloop
 endfacet

 facet normal 0 0 1
  outer loop
  vertex -0.839639 0.043994 0
  vertex -0.943422 -0.0741109 0
  vertex -0.710882 -0.134746 0
  endloop
 endfacet

 facet normal 0 0 1
  outer loop
  vertex 0.446287 -0.391304 0
  vertex 0.382659 -0.369765 0
  vertex 0.371141 -0.371141 0
  endloop
 endfacet

 facet normal 0 0 1
  outer loop
  vertex 0.193465 -0.193465 0
  vertex 0.363167 -0.363167 0
  vertex 0.537729 -0.138459 0
  endloop
 endfacet

 facet normal 0 0 1
  outer loop
  vertex 0.363167 -0.363167 0
  vertex 0.382659 -0.369765 0
  vertex 0.4573 -0.360853 0
  endloop
 endfacet

 facet normal 0 0 1
  outer loop
  vertex 0.0908668 -0.0908668 0
  vertex 0.193465 -0.193465 0
  vertex 0.0913063 -0.0870915 0
  endloop
 endfacet

 facet normal 0 0 1
  outer loop
  vertex 0.193465 -0.193465 0
  vertex 0.537729 -0.138459 0
  vertex 0.58223 -0.0154078 0
  endloop
 endfacet

 facet normal 0 0 1
  outer loop
  vertex 0.0913063 -0.0870915 0
  vertex 0.171644 0.60304 0
  vertex -0.250299 0.250299 0
  endloop
 endfacet

 facet normal 0 0 1
  outer loop
  vertex -0.467494 0.467494 0
  vertex -0.250299 0.250299 0
  vertex -0.149538 0.829327 0
  endloop
 endfacet

 facet normal 0 0 1
  outer loop
  vertex -0.250299 0.250299 0
  vertex 0.171644 0.60304 0
  vertex -0.149538 0.829327 0
  endloop
 endfacet

 facet normal 0 0 1
  outer loop
  vertex -0.467494 0.467494 0
  vertex -0.149538 0.829327 0
  vertex -0.196982 0.860767 0
  endloop
 endfacet

 facet normal 0 0 1
  outer loop
  vertex -0.88047 0.88047 0
  vertex -0.586239 0.586239 0
  vertex -0.407092 1 0
  endloop
 endfacet

 facet normal 0 0 1
  outer loop
  vertex -0.586239 0.586239 0
  vertex -0.196982 0.860767 0
  vertex -0.407092 1 0
  endloop
 endfacet

 facet normal 0 0 1
  outer loop
  vertex -0.149538 0.829327 0
  vertex 0.173098 0.615527 0
  vertex 0.217854 1 0
  endloop
 endfacet

 facet normal 0 0 1
  outer loop
  vertex 0.534775 1 0
  vertex 0.217854 1 0
  vertex 0.57278 0.938388 0
  endloop
 endfacet

 facet normal 0 0 1
  outer loop
  vertex 0.217854 1 0
  vertex 0.173098 0.615527 0
  vertex 0.180619 0.610543 0
  endloop
 endfacet

 facet normal 0 0 1
  outer loop
  vertex 0.57278 0.938388 0
  vertex 0.796189 0.57621 0
  vertex 0.949453 1 0
  endloop
 endfacet

 facet normal 0 0 1
  outer loop
  vertex 0.796189 0.57621 0
  vertex 1 0.245803 0
  vertex 1 1 0
  endloop
 endfacet

 facet normal 0 0 1
  outer loop
  vertex 1 0.245803 0
  vertex 0.796189 0.57621 0
  vertex 0.687201 0.274847 0
  endloop
 endfacet

 facet normal 0 0 1
  outer loop
  vertex 0.687201 0.274847 0
  vertex 0.58223 -0.0154078 0
  vertex 1 0.045594 0
  endloop
 endfacet

 facet normal 0 0 1
  outer loop
  vertex 0.58223 -0.0154078 0
  vertex 0.537729 -0.138459 0
  vertex 1 -0.0645971 0
  endloop
 endfacet

 facet normal 0 0 1
  outer loop
  vertex 0.537729 -0.138459 0
  vertex 0.4573 -0.360853 0
  vertex 1 -0.296053 0
  endloop
 endfacet

 facet normal 0 0 1
  outer loop
  vertex 1 -0.494511 0
  vertex 1 -0.296053 0
  vertex 0.936051 -0.557094 0
  endloop
 endfacet

 facet normal 0 0 1
  outer loop
  vertex 1 -0.296053 0
  vertex 0.4573 -0.360853 0
  vertex 0.936051 -0.557094 0
  endloop
 endfacet

 facet normal 0 0 1
  outer loop
  vertex 0.936051 -0.557094 0
  vertex 0.930326 -0.562696 0
  vertex 1 -0.580863 0
  endloop
 endfacet

 facet normal 0 0 1
  outer loop
  vertex 0.446287 -0.391304 0
  vertex 0.431684 -0.431684 0
  vertex 0.930326 -0.562696 0
  endloop
 endfacet

 facet normal 0 0 1
  outer loop
  vertex 0.796189 0.57621 0
  vertex 0.57278 0.938388 0
  vertex 0.180619 0.610543 0
  endloop
 endfacet

 facet normal 0 0 1
  outer loop
  vertex 0.58223 -0.0154078 0
  vertex 0.687201 0.274847 0
  vertex 0.171644 0.60304 0
  endloop
 endfacet

 facet normal 0 0 1
  outer loop
  vertex 0.687201 0.274847 0
  vertex 0.180619 0.610543 0
  vertex 0.171644 0.60304 0
  endloop
 endfacet

endsolid AssimpScene
